<svg id="mermaid-1524751708980" width="100%" xmlns="http://www.w3.org/2000/svg" height="100%" style="max-width:700px;" viewBox="-75 -10 700 585"><style></style><style>#mermaid-1524751708980 {
    color: rgba(0, 0, 0, 0.65);
    font: ;
  }</style><g></g><g><line id="actor27" x1="75" y1="5" x2="75" y2="574" class="actor-line" stroke-width="0.5px" stroke="#999"></line><rect x="0" y="0" fill="#eaeaea" stroke="#666" width="150" height="65" rx="3" ry="3" class="actor"></rect><text x="75" y="32.5" style="text-anchor: middle;" dominant-baseline="central" alignment-baseline="central" class="actor"><tspan x="75" dy="0">Alice</tspan></text></g><g><line id="actor28" x1="275" y1="5" x2="275" y2="574" class="actor-line" stroke-width="0.5px" stroke="#999"></line><rect x="200" y="0" fill="#eaeaea" stroke="#666" width="150" height="65" rx="3" ry="3" class="actor"></rect><text x="275" y="32.5" style="text-anchor: middle;" dominant-baseline="central" alignment-baseline="central" class="actor"><tspan x="275" dy="0">x2x</tspan></text></g><g><line id="actor29" x1="475" y1="5" x2="475" y2="574" class="actor-line" stroke-width="0.5px" stroke="#999"></line><rect x="400" y="0" fill="#eaeaea" stroke="#666" width="150" height="65" rx="3" ry="3" class="actor"></rect><text x="475" y="32.5" style="text-anchor: middle;" dominant-baseline="central" alignment-baseline="central" class="actor"><tspan x="475" dy="0">Bob</tspan></text></g><defs><marker id="arrowhead" refX="5" refY="2" markerWidth="6" markerHeight="4" orient="auto"><path d="M 0,0 V 4 L6,2 Z"></path></marker></defs><defs><marker id="crosshead" markerWidth="15" markerHeight="8" orient="auto" refX="16" refY="4"><path fill="black" stroke="#000000" style="stroke-dasharray: 0, 0;" stroke-width="1px" d="M 9,2 V 6 L16,4 Z"></path><path fill="none" stroke="#000000" style="stroke-dasharray: 0, 0;" stroke-width="1px" d="M 0,1 L 6,7 M 6,1 L 0,7"></path></marker></defs><g><text x="75" y="93" style="text-anchor: middle;" class="messageText">Calculates P using P = fG + B</text><path d="M 75,100 C 135,90 135,130 75,120" class="messageLine0" stroke-width="2" stroke="black" style="fill: none;" marker-end="url(#arrowhead)"></path></g><g><text x="75" y="158" style="text-anchor: middle;" class="messageText">Create Tx</text><path d="M 75,165 C 135,155 135,195 75,185" class="messageLine0" stroke-width="2" stroke="black" style="fill: none;" marker-end="url(#arrowhead)"></path></g><g><rect x="100" y="205" fill="#EDF2AE" stroke="#666" width="150" height="37" rx="0" ry="0" class="note"></rect><text x="96" y="229" fill="black" class="noteText"><tspan x="116" fill="black">Alice attaches R to the Tx</tspan></text></g><g><text x="175" y="270" style="text-anchor: middle;" class="messageText">Send Tx</text><line x1="75" y1="277" x2="275" y2="277" class="messageLine0" stroke-width="2" stroke="black" style="fill: none;" marker-end="url(#arrowhead)"></line></g><g><text x="375" y="305" style="text-anchor: middle;" class="messageText">Transmit Tx</text><line x1="275" y1="312" x2="475" y2="312" class="messageLine0" stroke-width="2" stroke="black" style="fill: none;" marker-end="url(#arrowhead)"></line></g><g><text x="475" y="340" style="text-anchor: middle;" class="messageText">Gets R from the Tx</text><path d="M 475,347 C 535,337 535,377 475,367" class="messageLine0" stroke-width="2" stroke="black" style="fill: none;" marker-end="url(#arrowhead)"></path></g><g><text x="475" y="405" style="text-anchor: middle;" class="messageText">Calculates P'</text><path d="M 475,412 C 535,402 535,442 475,432" class="messageLine0" stroke-width="2" stroke="black" style="fill: none;" marker-end="url(#arrowhead)"></path></g><g><rect x="300" y="452" fill="#EDF2AE" stroke="#666" width="150" height="37" rx="0" ry="0" class="note"></rect><text x="296" y="476" fill="black" class="noteText"><tspan x="316" fill="black">If P=P' Bob is Tx Recipient</tspan></text></g><g><rect x="0" y="509" fill="#eaeaea" stroke="#666" width="150" height="65" rx="3" ry="3" class="actor"></rect><text x="75" y="541.5" style="text-anchor: middle;" dominant-baseline="central" alignment-baseline="central" class="actor"><tspan x="75" dy="0">Alice</tspan></text></g><g><rect x="200" y="509" fill="#eaeaea" stroke="#666" width="150" height="65" rx="3" ry="3" class="actor"></rect><text x="275" y="541.5" style="text-anchor: middle;" dominant-baseline="central" alignment-baseline="central" class="actor"><tspan x="275" dy="0">x2x</tspan></text></g><g><rect x="400" y="509" fill="#eaeaea" stroke="#666" width="150" height="65" rx="3" ry="3" class="actor"></rect><text x="475" y="541.5" style="text-anchor: middle;" dominant-baseline="central" alignment-baseline="central" class="actor"><tspan x="475" dy="0">Bob</tspan></text></g></svg>